# xmcd CD database file
#
# Track frame offsets:
#	150
#	4973
#	48320
#	70699
#	107754
#	155923
#	200859
#	238026
#	257118
#	273395
#
# Disc length: 3709 seconds
#
# Revision: 0
# Processed by: cddbd v1.5.1PL0 Copyright (c) Steve Scherf et al.
# Submitted via: CDex 1.51
#
DISCID=920e7b0a
DTITLE=Montgomery, Bob - Talkin'
DYEAR=2002
DGENRE=Jazz
TTITLE0=Talkin'
TTITLE1=Love for Sale
TTITLE2=Alone Together
TTITLE3=Mamacita
TTITLE4=Body and Soul
TTITLE5=Blues ina a Closet
TTITLE6=Polka Dots and Moonbeams
TTITLE7=Ladybird
TTITLE8=Peace
TTITLE9=Talkin'
EXTD=YEAR: 2002
EXTT0=
EXTT1=
EXTT2=
EXTT3=
EXTT4=
EXTT5=
EXTT6=
EXTT7=
EXTT8=
EXTT9=
PLAYORDER=
